<mxfile host="Electron" modified="2024-05-04T05:02:52.024Z" agent="Mozilla/5.0 (Windows NT 10.0; Win64; x64) AppleWebKit/537.36 (KHTML, like Gecko) draw.io/24.0.4 Chrome/120.0.6099.109 Electron/28.1.0 Safari/537.36" etag="vK0mZFeCHvxUZJl_60OF" version="24.0.4" type="device">
  <diagram name="Page-1" id="fc2ac565-0d4e-3f0d-88b0-a54af1634ed7">
    <mxGraphModel dx="454" dy="292" grid="1" gridSize="10" guides="1" tooltips="1" connect="0" arrows="1" fold="1" page="1" pageScale="1.5" pageWidth="1169" pageHeight="827" background="none" math="0" shadow="0">
      <root>
        <mxCell id="0" style=";html=1;" />
        <mxCell id="1" style=";html=1;" parent="0" />
        <mxCell id="75" value="階段1：需求訪談" style="align=left;strokeColor=#CCCCCC;html=1;" parent="1" vertex="1">
          <mxGeometry x="297.0000000000003" y="149.99999999999977" width="319.9999999999997" height="20.000000000000014" as="geometry" />
        </mxCell>
        <mxCell id="80" value="階段1：需求分析及討論" style="align=left;strokeColor=#CCCCCC;html=1;" parent="1" vertex="1">
          <mxGeometry x="297" y="170.00000000000023" width="320" height="20" as="geometry" />
        </mxCell>
        <mxCell id="85" value="階段1：系統架構設計分析" style="align=left;strokeColor=#CCCCCC;html=1;" parent="1" vertex="1">
          <mxGeometry x="296.9999999999999" y="190.00000000000023" width="320.0000000000001" height="20" as="geometry" />
        </mxCell>
        <mxCell id="90" value="階段2：前端開發" style="align=left;strokeColor=#CCCCCC;html=1;" parent="1" vertex="1">
          <mxGeometry x="296.9999999999999" y="210.00000000000045" width="320.0000000000001" height="20" as="geometry" />
        </mxCell>
        <mxCell id="95" value="階段2：後端開發" style="align=left;strokeColor=#CCCCCC;html=1;" parent="1" vertex="1">
          <mxGeometry x="297.0000000000006" y="230.00000000000068" width="319.9999999999994" height="20" as="geometry" />
        </mxCell>
        <mxCell id="100" value="階段2：數據庫設計和開發" style="align=left;strokeColor=#CCCCCC;html=1;" parent="1" vertex="1">
          <mxGeometry x="297.0000000000006" y="250.00000000000057" width="319.9999999999994" height="20" as="geometry" />
        </mxCell>
        <mxCell id="2" value="工作項目/時間" style="strokeWidth=1;fontStyle=0;html=1;" parent="1" vertex="1">
          <mxGeometry x="297" y="130" width="320" height="20" as="geometry" />
        </mxCell>
        <mxCell id="67c90442a009f359-289" value="階段2：用戶介面測試，檢查響應時間和體驗" style="align=left;strokeColor=#CCCCCC;html=1;" parent="1" vertex="1">
          <mxGeometry x="297.0000000000006" y="270.00000000000057" width="319.9999999999994" height="20" as="geometry" />
        </mxCell>
        <mxCell id="67c90442a009f359-290" value="階段3：部屬和維護" style="align=left;strokeColor=#CCCCCC;html=1;" parent="1" vertex="1">
          <mxGeometry x="297.0000000000006" y="350.00000000000057" width="319.9999999999994" height="20" as="geometry" />
        </mxCell>
        <mxCell id="67c90442a009f359-291" value="" style="align=left;strokeColor=#CCCCCC;html=1;" parent="1" vertex="1">
          <mxGeometry x="617" y="150" width="840" height="20" as="geometry" />
        </mxCell>
        <mxCell id="4" value="2024年09月" style="strokeWidth=1;fontStyle=0;html=1;" parent="1" vertex="1">
          <mxGeometry x="617" y="130" width="70" height="20" as="geometry" />
        </mxCell>
        <mxCell id="67c90442a009f359-278" value="2024年10月" style="strokeWidth=1;fontStyle=0;html=1;" parent="1" vertex="1">
          <mxGeometry x="687" y="130" width="70" height="20" as="geometry" />
        </mxCell>
        <mxCell id="67c90442a009f359-279" value="2024年11月" style="strokeWidth=1;fontStyle=0;html=1;" parent="1" vertex="1">
          <mxGeometry x="757" y="130" width="70" height="20" as="geometry" />
        </mxCell>
        <mxCell id="67c90442a009f359-280" value="2024年12月" style="strokeWidth=1;fontStyle=0;html=1;" parent="1" vertex="1">
          <mxGeometry x="827" y="130" width="70" height="20" as="geometry" />
        </mxCell>
        <mxCell id="67c90442a009f359-281" value="2025年01月" style="strokeWidth=1;fontStyle=0;html=1;" parent="1" vertex="1">
          <mxGeometry x="897" y="130" width="70" height="20" as="geometry" />
        </mxCell>
        <mxCell id="67c90442a009f359-282" value="2025年02月" style="strokeWidth=1;fontStyle=0;html=1;" parent="1" vertex="1">
          <mxGeometry x="967" y="130" width="70" height="20" as="geometry" />
        </mxCell>
        <mxCell id="67c90442a009f359-283" value="2025年03月" style="strokeWidth=1;fontStyle=0;html=1;" parent="1" vertex="1">
          <mxGeometry x="1037" y="130" width="70" height="20" as="geometry" />
        </mxCell>
        <mxCell id="67c90442a009f359-284" value="2025年04月" style="strokeWidth=1;fontStyle=0;html=1;" parent="1" vertex="1">
          <mxGeometry x="1107" y="130" width="70" height="20" as="geometry" />
        </mxCell>
        <mxCell id="67c90442a009f359-285" value="2025年05月" style="strokeWidth=1;fontStyle=0;html=1;" parent="1" vertex="1">
          <mxGeometry x="1177" y="130" width="70" height="20" as="geometry" />
        </mxCell>
        <mxCell id="67c90442a009f359-286" value="2025年06月" style="strokeWidth=1;fontStyle=0;html=1;" parent="1" vertex="1">
          <mxGeometry x="1247" y="130" width="70" height="20" as="geometry" />
        </mxCell>
        <mxCell id="67c90442a009f359-287" value="2025年07月" style="strokeWidth=1;fontStyle=0;html=1;" parent="1" vertex="1">
          <mxGeometry x="1317" y="130" width="70" height="20" as="geometry" />
        </mxCell>
        <mxCell id="67c90442a009f359-288" value="2025年08月" style="strokeWidth=1;fontStyle=0;html=1;" parent="1" vertex="1">
          <mxGeometry x="1387" y="130" width="70" height="20" as="geometry" />
        </mxCell>
        <mxCell id="67c90442a009f359-292" value="" style="align=left;strokeColor=#CCCCCC;html=1;" parent="1" vertex="1">
          <mxGeometry x="617" y="170" width="840" height="20" as="geometry" />
        </mxCell>
        <mxCell id="67c90442a009f359-293" value="" style="align=left;strokeColor=#CCCCCC;html=1;" parent="1" vertex="1">
          <mxGeometry x="617" y="190" width="840" height="20" as="geometry" />
        </mxCell>
        <mxCell id="67c90442a009f359-294" value="" style="align=left;strokeColor=#CCCCCC;html=1;" parent="1" vertex="1">
          <mxGeometry x="617" y="210" width="840" height="20" as="geometry" />
        </mxCell>
        <mxCell id="67c90442a009f359-295" value="" style="align=left;strokeColor=#CCCCCC;html=1;" parent="1" vertex="1">
          <mxGeometry x="617" y="230" width="840" height="20" as="geometry" />
        </mxCell>
        <mxCell id="67c90442a009f359-296" value="" style="align=left;strokeColor=#CCCCCC;html=1;" parent="1" vertex="1">
          <mxGeometry x="617" y="250" width="840" height="20" as="geometry" />
        </mxCell>
        <mxCell id="67c90442a009f359-297" value="" style="align=left;strokeColor=#CCCCCC;html=1;" parent="1" vertex="1">
          <mxGeometry x="617" y="270" width="840" height="20" as="geometry" />
        </mxCell>
        <mxCell id="67c90442a009f359-298" value="" style="align=left;strokeColor=#CCCCCC;html=1;" parent="1" vertex="1">
          <mxGeometry x="617" y="350" width="840" height="20" as="geometry" />
        </mxCell>
        <mxCell id="67c90442a009f359-302" value="6個月" style="whiteSpace=wrap;html=1;strokeWidth=2;fillColor=#CCCCCC;gradientColor=none;fontSize=14;align=center;strokeColor=#999999;" parent="1" vertex="1">
          <mxGeometry x="825" y="210" width="425" height="20" as="geometry" />
        </mxCell>
        <mxCell id="A9UB_X8AhFoC9UPcY8sv-102" value="【&lt;span style=&quot;background-color: initial;&quot;&gt;網購系統】&lt;/span&gt;&lt;span style=&quot;background-color: initial;&quot;&gt;預定進度甘特圖&lt;/span&gt;" style="strokeWidth=1;fontStyle=0;html=1;" parent="1" vertex="1">
          <mxGeometry x="297" y="110" width="1160" height="20" as="geometry" />
        </mxCell>
        <mxCell id="A9UB_X8AhFoC9UPcY8sv-104" value="階段2：前後端及資料庫壓力測試" style="align=left;strokeColor=#CCCCCC;html=1;" parent="1" vertex="1">
          <mxGeometry x="297.0000000000006" y="290.00000000000057" width="319.9999999999994" height="20" as="geometry" />
        </mxCell>
        <mxCell id="A9UB_X8AhFoC9UPcY8sv-106" value="階段2：單元測試和集合測試" style="align=left;strokeColor=#CCCCCC;html=1;" parent="1" vertex="1">
          <mxGeometry x="297.0000000000006" y="310.00000000000057" width="319.9999999999994" height="20" as="geometry" />
        </mxCell>
        <mxCell id="A9UB_X8AhFoC9UPcY8sv-107" value="" style="align=left;strokeColor=#CCCCCC;html=1;" parent="1" vertex="1">
          <mxGeometry x="617" y="310" width="840" height="20" as="geometry" />
        </mxCell>
        <mxCell id="A9UB_X8AhFoC9UPcY8sv-109" value="階段2：驗收及上線" style="align=left;strokeColor=#CCCCCC;html=1;" parent="1" vertex="1">
          <mxGeometry x="297.0000000000006" y="330.00000000000057" width="319.9999999999994" height="20" as="geometry" />
        </mxCell>
        <mxCell id="A9UB_X8AhFoC9UPcY8sv-110" value="" style="align=left;strokeColor=#CCCCCC;html=1;" parent="1" vertex="1">
          <mxGeometry x="617" y="330" width="840" height="20" as="geometry" />
        </mxCell>
        <mxCell id="A9UB_X8AhFoC9UPcY8sv-112" value="1個月" style="whiteSpace=wrap;html=1;strokeWidth=2;fillColor=#CCCCCC;gradientColor=none;fontSize=14;align=center;strokeColor=#999999;" parent="1" vertex="1">
          <mxGeometry x="1389" y="351" width="68" height="20" as="geometry" />
        </mxCell>
        <mxCell id="A9UB_X8AhFoC9UPcY8sv-114" value="2個月" style="whiteSpace=wrap;html=1;strokeWidth=2;fillColor=#CCCCCC;gradientColor=none;fontSize=14;align=center;strokeColor=#999999;" parent="1" vertex="1">
          <mxGeometry x="618" y="150" width="139" height="20" as="geometry" />
        </mxCell>
        <mxCell id="A9UB_X8AhFoC9UPcY8sv-115" value="2個月" style="whiteSpace=wrap;html=1;strokeWidth=2;fillColor=#CCCCCC;gradientColor=none;fontSize=14;align=center;strokeColor=#999999;" parent="1" vertex="1">
          <mxGeometry x="687" y="170" width="138" height="20" as="geometry" />
        </mxCell>
        <mxCell id="A9UB_X8AhFoC9UPcY8sv-117" value="2個月" style="whiteSpace=wrap;html=1;strokeWidth=2;fillColor=#CCCCCC;gradientColor=none;fontSize=14;align=center;strokeColor=#999999;" parent="1" vertex="1">
          <mxGeometry x="687" y="190" width="138" height="20" as="geometry" />
        </mxCell>
        <mxCell id="A9UB_X8AhFoC9UPcY8sv-119" value="" style="align=left;strokeColor=#CCCCCC;html=1;" parent="1" vertex="1">
          <mxGeometry x="617" y="290" width="840" height="20" as="geometry" />
        </mxCell>
        <mxCell id="A9UB_X8AhFoC9UPcY8sv-120" value="6個月" style="whiteSpace=wrap;html=1;strokeWidth=2;fillColor=#CCCCCC;gradientColor=none;fontSize=14;align=center;strokeColor=#999999;" parent="1" vertex="1">
          <mxGeometry x="825" y="230" width="425" height="20" as="geometry" />
        </mxCell>
        <mxCell id="A9UB_X8AhFoC9UPcY8sv-121" value="6個月" style="whiteSpace=wrap;html=1;strokeWidth=2;fillColor=#CCCCCC;gradientColor=none;fontSize=14;align=center;strokeColor=#999999;" parent="1" vertex="1">
          <mxGeometry x="825" y="250" width="425" height="20" as="geometry" />
        </mxCell>
        <mxCell id="A9UB_X8AhFoC9UPcY8sv-122" value="3個月" style="whiteSpace=wrap;html=1;strokeWidth=2;fillColor=#CCCCCC;gradientColor=none;fontSize=14;align=center;strokeColor=#999999;" parent="1" vertex="1">
          <mxGeometry x="1110" y="270" width="210" height="20" as="geometry" />
        </mxCell>
        <mxCell id="A9UB_X8AhFoC9UPcY8sv-124" value="3個月" style="whiteSpace=wrap;html=1;strokeWidth=2;fillColor=#CCCCCC;gradientColor=none;fontSize=14;align=center;strokeColor=#999999;" parent="1" vertex="1">
          <mxGeometry x="1110" y="290" width="210" height="20" as="geometry" />
        </mxCell>
        <mxCell id="A9UB_X8AhFoC9UPcY8sv-125" value="3個月" style="whiteSpace=wrap;html=1;strokeWidth=2;fillColor=#CCCCCC;gradientColor=none;fontSize=14;align=center;strokeColor=#999999;" parent="1" vertex="1">
          <mxGeometry x="1110" y="310" width="210" height="20" as="geometry" />
        </mxCell>
        <mxCell id="A9UB_X8AhFoC9UPcY8sv-127" value="2個月" style="whiteSpace=wrap;html=1;strokeWidth=2;fillColor=#CCCCCC;gradientColor=none;fontSize=14;align=center;strokeColor=#999999;" parent="1" vertex="1">
          <mxGeometry x="1251" y="330" width="138" height="20" as="geometry" />
        </mxCell>
        <mxCell id="Q_dIc9S3RE-M41xIQzDx-101" value="累積進度比率" style="strokeWidth=1;fontStyle=0;html=1;" vertex="1" parent="1">
          <mxGeometry x="297" y="371" width="320" height="20" as="geometry" />
        </mxCell>
        <mxCell id="Q_dIc9S3RE-M41xIQzDx-102" value="5%" style="strokeWidth=1;fontStyle=0;html=1;" vertex="1" parent="1">
          <mxGeometry x="617.5" y="371" width="70" height="20" as="geometry" />
        </mxCell>
        <mxCell id="Q_dIc9S3RE-M41xIQzDx-103" value="8%" style="strokeWidth=1;fontStyle=0;html=1;" vertex="1" parent="1">
          <mxGeometry x="687.5" y="371" width="70" height="20" as="geometry" />
        </mxCell>
        <mxCell id="Q_dIc9S3RE-M41xIQzDx-104" value="12%" style="strokeWidth=1;fontStyle=0;html=1;" vertex="1" parent="1">
          <mxGeometry x="757.5" y="371" width="70" height="20" as="geometry" />
        </mxCell>
        <mxCell id="Q_dIc9S3RE-M41xIQzDx-105" value="24%" style="strokeWidth=1;fontStyle=0;html=1;" vertex="1" parent="1">
          <mxGeometry x="827.5" y="371" width="70" height="20" as="geometry" />
        </mxCell>
        <mxCell id="Q_dIc9S3RE-M41xIQzDx-106" value="36%" style="strokeWidth=1;fontStyle=0;html=1;" vertex="1" parent="1">
          <mxGeometry x="897.5" y="371" width="70" height="20" as="geometry" />
        </mxCell>
        <mxCell id="Q_dIc9S3RE-M41xIQzDx-107" value="50%" style="strokeWidth=1;fontStyle=0;html=1;" vertex="1" parent="1">
          <mxGeometry x="967.5" y="371" width="70" height="20" as="geometry" />
        </mxCell>
        <mxCell id="Q_dIc9S3RE-M41xIQzDx-108" value="60%" style="strokeWidth=1;fontStyle=0;html=1;" vertex="1" parent="1">
          <mxGeometry x="1037.5" y="371" width="70" height="20" as="geometry" />
        </mxCell>
        <mxCell id="Q_dIc9S3RE-M41xIQzDx-109" value="70%" style="strokeWidth=1;fontStyle=0;html=1;" vertex="1" parent="1">
          <mxGeometry x="1107.5" y="371" width="70" height="20" as="geometry" />
        </mxCell>
        <mxCell id="Q_dIc9S3RE-M41xIQzDx-110" value="80%" style="strokeWidth=1;fontStyle=0;html=1;" vertex="1" parent="1">
          <mxGeometry x="1177.5" y="371" width="70" height="20" as="geometry" />
        </mxCell>
        <mxCell id="Q_dIc9S3RE-M41xIQzDx-111" value="90%" style="strokeWidth=1;fontStyle=0;html=1;" vertex="1" parent="1">
          <mxGeometry x="1247.5" y="371" width="70" height="20" as="geometry" />
        </mxCell>
        <mxCell id="Q_dIc9S3RE-M41xIQzDx-112" value="95%" style="strokeWidth=1;fontStyle=0;html=1;" vertex="1" parent="1">
          <mxGeometry x="1317.5" y="371" width="70" height="20" as="geometry" />
        </mxCell>
        <mxCell id="Q_dIc9S3RE-M41xIQzDx-113" value="100%" style="strokeWidth=1;fontStyle=0;html=1;" vertex="1" parent="1">
          <mxGeometry x="1387.5" y="371" width="70" height="20" as="geometry" />
        </mxCell>
        <mxCell id="Q_dIc9S3RE-M41xIQzDx-114" value="" style="strokeWidth=2;html=1;shape=mxgraph.flowchart.extract_or_measurement;whiteSpace=wrap;fillColor=#d80073;fontColor=#ffffff;strokeColor=#A50040;" vertex="1" parent="1">
          <mxGeometry x="815" y="170" width="20" height="16" as="geometry" />
        </mxCell>
        <mxCell id="Q_dIc9S3RE-M41xIQzDx-117" value="" style="strokeWidth=1;fontStyle=0;html=1;" vertex="1" parent="1">
          <mxGeometry x="1457" y="110" width="70" height="281" as="geometry" />
        </mxCell>
        <mxCell id="Q_dIc9S3RE-M41xIQzDx-118" value="備註" style="strokeWidth=1;fontStyle=0;html=1;" vertex="1" parent="1">
          <mxGeometry x="1457" y="130" width="70" height="20" as="geometry" />
        </mxCell>
        <mxCell id="Q_dIc9S3RE-M41xIQzDx-119" value="" style="strokeWidth=1;fontStyle=0;html=1;" vertex="1" parent="1">
          <mxGeometry x="1457" y="150" width="70" height="20" as="geometry" />
        </mxCell>
        <mxCell id="Q_dIc9S3RE-M41xIQzDx-120" value="SSR" style="strokeWidth=1;fontStyle=0;html=1;" vertex="1" parent="1">
          <mxGeometry x="1457" y="170" width="70" height="20" as="geometry" />
        </mxCell>
        <mxCell id="Q_dIc9S3RE-M41xIQzDx-121" value="CDR" style="strokeWidth=1;fontStyle=0;html=1;" vertex="1" parent="1">
          <mxGeometry x="1457" y="190" width="70" height="20" as="geometry" />
        </mxCell>
        <mxCell id="Q_dIc9S3RE-M41xIQzDx-122" value="" style="strokeWidth=1;fontStyle=0;html=1;" vertex="1" parent="1">
          <mxGeometry x="1457.5" y="210" width="70" height="20" as="geometry" />
        </mxCell>
        <mxCell id="Q_dIc9S3RE-M41xIQzDx-123" value="" style="strokeWidth=1;fontStyle=0;html=1;" vertex="1" parent="1">
          <mxGeometry x="1457" y="230" width="70" height="20" as="geometry" />
        </mxCell>
        <mxCell id="Q_dIc9S3RE-M41xIQzDx-124" value="" style="strokeWidth=1;fontStyle=0;html=1;" vertex="1" parent="1">
          <mxGeometry x="1457" y="250" width="70" height="20" as="geometry" />
        </mxCell>
        <mxCell id="Q_dIc9S3RE-M41xIQzDx-125" value="" style="strokeWidth=1;fontStyle=0;html=1;" vertex="1" parent="1">
          <mxGeometry x="1457" y="271" width="70" height="20" as="geometry" />
        </mxCell>
        <mxCell id="Q_dIc9S3RE-M41xIQzDx-126" value="" style="strokeWidth=1;fontStyle=0;html=1;" vertex="1" parent="1">
          <mxGeometry x="1457.5" y="291" width="70" height="20" as="geometry" />
        </mxCell>
        <mxCell id="Q_dIc9S3RE-M41xIQzDx-127" value="FCA" style="strokeWidth=1;fontStyle=0;html=1;" vertex="1" parent="1">
          <mxGeometry x="1457.5" y="310" width="70" height="20" as="geometry" />
        </mxCell>
        <mxCell id="Q_dIc9S3RE-M41xIQzDx-128" value="PCA" style="strokeWidth=1;fontStyle=0;html=1;" vertex="1" parent="1">
          <mxGeometry x="1457.5" y="331" width="70" height="20" as="geometry" />
        </mxCell>
        <mxCell id="Q_dIc9S3RE-M41xIQzDx-129" value="" style="strokeWidth=1;fontStyle=0;html=1;" vertex="1" parent="1">
          <mxGeometry x="1457.5" y="351" width="70" height="20" as="geometry" />
        </mxCell>
        <mxCell id="Q_dIc9S3RE-M41xIQzDx-134" value="" style="strokeWidth=2;html=1;shape=mxgraph.flowchart.extract_or_measurement;whiteSpace=wrap;fillColor=#d80073;fontColor=#ffffff;strokeColor=#A50040;" vertex="1" parent="1">
          <mxGeometry x="816" y="191" width="20" height="16" as="geometry" />
        </mxCell>
        <mxCell id="Q_dIc9S3RE-M41xIQzDx-135" value="" style="strokeWidth=2;html=1;shape=mxgraph.flowchart.extract_or_measurement;whiteSpace=wrap;fillColor=#d80073;fontColor=#ffffff;strokeColor=#A50040;" vertex="1" parent="1">
          <mxGeometry x="1310" y="310" width="20" height="16" as="geometry" />
        </mxCell>
        <mxCell id="Q_dIc9S3RE-M41xIQzDx-136" value="" style="strokeWidth=2;html=1;shape=mxgraph.flowchart.extract_or_measurement;whiteSpace=wrap;fillColor=#d80073;fontColor=#ffffff;strokeColor=#A50040;" vertex="1" parent="1">
          <mxGeometry x="1380" y="330" width="20" height="16" as="geometry" />
        </mxCell>
      </root>
    </mxGraphModel>
  </diagram>
</mxfile>
